<?xml version="1.0" encoding="UTF-8" standalone="no"?>
<svg
   xmlns:dc="http://purl.org/dc/elements/1.1/"
   xmlns:cc="http://creativecommons.org/ns#"
   xmlns:rdf="http://www.w3.org/1999/02/22-rdf-syntax-ns#"
   xmlns:svg="http://www.w3.org/2000/svg"
   xmlns="http://www.w3.org/2000/svg"
   xmlns:sodipodi="http://sodipodi.sourceforge.net/DTD/sodipodi-0.dtd"
   xmlns:inkscape="http://www.inkscape.org/namespaces/inkscape"
   width="543"
   height="407.24075"
   viewBox="0 0 543 407.24074"
   version="1.1"
   id="svg18"
   sodipodi:docname="Gmail_2020.svg"
   inkscape:version="0.92.3 (2405546, 2018-03-11)">
  <metadata
     id="metadata22">
    <rdf:RDF>
      <cc:Work
         rdf:about="">
        <dc:format>image/svg+xml</dc:format>
        <dc:type
           rdf:resource="http://purl.org/dc/dcmitype/StillImage" />
        <dc:title>logo</dc:title>
      </cc:Work>
    </rdf:RDF>
  </metadata>
  <sodipodi:namedview
     pagecolor="#ffffff"
     bordercolor="#666666"
     borderopacity="1"
     objecttolerance="10"
     gridtolerance="10"
     guidetolerance="10"
     inkscape:pageopacity="0"
     inkscape:pageshadow="2"
     inkscape:window-width="1366"
     inkscape:window-height="705"
     id="namedview20"
     showgrid="false"
     inkscape:zoom="2.3071895"
     inkscape:cx="191.30881"
     inkscape:cy="-74.667856"
     inkscape:window-x="-8"
     inkscape:window-y="-8"
     inkscape:window-maximized="1"
     inkscape:current-layer="svg18" />
  <!-- Generator: Sketch 39.1 (31720) - http://www.bohemiancoding.com/sketch -->
  <title
     id="title2">logo</title>
  <desc
     id="desc4">Created with Sketch.</desc>
  <defs
     id="defs6" />
  <g
     transform="matrix(18.510943,0,0,18.510943,0,-0.11106566)"
     id="g18">
    <path
       class="a"
       d="M 2,22.006 H 6.667 V 10.672 L 0,5.672 v 14.334 a 2,2 0 0 0 2,2 z"
       id="path8"
       inkscape:connector-curvature="0"
       style="fill:#4285f4" />
    <path
       class="b"
       d="m 22.667,22.006 h 4.667 a 2,2 0 0 0 2,-2 V 5.672 l -6.667,5 z"
       id="path10"
       inkscape:connector-curvature="0"
       style="fill:#34a853" />
    <path
       class="c"
       d="m 22.667,2.006 v 8.666 l 6.667,-5 V 3.006 a 3,3 0 0 0 -4.8,-2.4 z"
       id="path12"
       inkscape:connector-curvature="0"
       style="fill:#fbbc04" />
    <path
       class="d"
       d="M 6.667,10.672 V 2.006 l 8,6 8,-6 v 8.666 l -8,6 z"
       id="path14"
       inkscape:connector-curvature="0"
       style="fill:#ea4335;fill-rule:evenodd" />
    <path
       class="e"
       d="m 0,3.006 v 2.666 l 6.667,5 V 2.006 L 4.8,0.606 A 3,3 0 0 0 0,3.006 Z"
       id="path16"
       inkscape:connector-curvature="0"
       style="fill:#c5221f" />
  </g>
</svg>
