<?xml version="1.0" encoding="UTF-8" standalone="no"?>
<!-- Created with Inkscape (http://www.inkscape.org/) -->

<svg
   xmlns:dc="http://purl.org/dc/elements/1.1/"
   xmlns:cc="http://creativecommons.org/ns#"
   xmlns:rdf="http://www.w3.org/1999/02/22-rdf-syntax-ns#"
   xmlns:svg="http://www.w3.org/2000/svg"
   xmlns="http://www.w3.org/2000/svg"
   xmlns:sodipodi="http://sodipodi.sourceforge.net/DTD/sodipodi-0.dtd"
   xmlns:inkscape="http://www.inkscape.org/namespaces/inkscape"
   width="1000"
   height="333.32999"
   id="svg3177"
   version="1.1"
   inkscape:version="0.91 r13725"
   sodipodi:docname="NPR.svg">
  <defs
     id="defs3179">
    <clipPath
       clipPathUnits="userSpaceOnUse"
       id="clipPath4738">
      <path
         inkscape:connector-curvature="0"
         d="m 89.795,296.34 21.28,0 0,28.722 -21.28,0 0,-28.722 z"
         id="path4740" />
    </clipPath>
    <clipPath
       clipPathUnits="userSpaceOnUse"
       id="clipPath6029">
      <path
         inkscape:connector-curvature="0"
         d="m 369,-695.5049 225,0 0,-67.926 -225,0 0,67.926 z"
         id="path6031" />
    </clipPath>
    <clipPath
       clipPathUnits="userSpaceOnUse"
       id="clipPath6039">
      <path
         inkscape:connector-curvature="0"
         d="M 0,0 612,0 612,792 0,792 0,0 Z"
         id="path6041" />
    </clipPath>
    <clipPath
       clipPathUnits="userSpaceOnUse"
       id="clipPath6049">
      <path
         inkscape:connector-curvature="0"
         d="m -2.13905,-13.5704 3.32099,0 0,15.24972 -3.32099,0 0,-15.24972 z"
         id="path6051" />
    </clipPath>
    <clipPath
       clipPathUnits="userSpaceOnUse"
       id="clipPath6057">
      <path
         inkscape:connector-curvature="0"
         d="M 0,0 1,0 1,1 0,1 0,0 Z"
         id="path6059" />
    </clipPath>
    <clipPath
       clipPathUnits="userSpaceOnUse"
       id="clipPath6500">
      <path
         inkscape:connector-curvature="0"
         d="m 155.12,157.85 301.13,0 0,-59.34 -301.13,0 0,59.34 z"
         id="path6502"
         style="clip-rule:evenodd" />
    </clipPath>
    <clipPath
       clipPathUnits="userSpaceOnUse"
       id="clipPath6506">
      <path
         inkscape:connector-curvature="0"
         d="m 53,722 506,0 0,-650 -506,0 0,650 z"
         id="path6508" />
    </clipPath>
    <clipPath
       clipPathUnits="userSpaceOnUse"
       id="clipPath6512">
      <path
         inkscape:connector-curvature="0"
         d="m 0,792.036 612,0 0,-792 -612,0 0,792 z"
         id="path6514" />
    </clipPath>
    <clipPath
       clipPathUnits="userSpaceOnUse"
       id="clipPath6883">
      <path
         inkscape:connector-curvature="0"
         d="m 0,0 280.02,0 0,93.583 L 0,93.583 0,0 Z"
         id="path6885" />
    </clipPath>
    <clipPath
       clipPathUnits="userSpaceOnUse"
       id="clipPath13370">
      <path
         inkscape:connector-curvature="0"
         d="m 40.252,694.519 104.303,0 0,34.61 -104.303,0 0,-34.61 z"
         id="path13372" />
    </clipPath>
  </defs>
  <sodipodi:namedview
     id="base"
     pagecolor="#ffffff"
     bordercolor="#666666"
     borderopacity="1.0"
     inkscape:pageopacity="0.0"
     inkscape:pageshadow="2"
     inkscape:zoom="0.57080078"
     inkscape:cx="611.4882"
     inkscape:cy="9.5044392"
     inkscape:document-units="px"
     inkscape:current-layer="layer1"
     showgrid="false"
     fit-margin-left="0.5"
     fit-margin-bottom="0.5"
     fit-margin-top="0.5"
     fit-margin-right="0.5"
     inkscape:window-width="1366"
     inkscape:window-height="705"
     inkscape:window-x="-8"
     inkscape:window-y="-8"
     inkscape:window-maximized="1">
    <inkscape:grid
       type="xygrid"
       id="grid6783"
       empspacing="5"
       visible="true"
       enabled="true"
       snapvisiblegridlinesonly="true"
       originx="-387.58134px"
       originy="-319.65177px" />
  </sodipodi:namedview>
  <metadata
     id="metadata3182">
    <rdf:RDF>
      <cc:Work
         rdf:about="">
        <dc:format>image/svg+xml</dc:format>
        <dc:type
           rdf:resource="http://purl.org/dc/dcmitype/StillImage" />
        <dc:title></dc:title>
      </cc:Work>
    </rdf:RDF>
  </metadata>
  <g
     inkscape:label="Layer 1"
     inkscape:groupmode="layer"
     id="layer1"
     transform="translate(-427.50964,1483.6327)">
    <path
       d="m 760.82782,-1483.6323 -333.31818,0 0,333.3296 333.31818,0 0,-333.3296 z"
       style="fill:#f1452a;fill-opacity:1;fill-rule:nonzero;stroke:none"
       id="path13400"
       inkscape:connector-curvature="0" />
    <path
       d="m 1094.1801,-1483.6323 -333.35228,0 0,333.3296 333.35228,0 0,-333.3296 z"
       style="fill:#000917;fill-opacity:1;fill-rule:nonzero;stroke:none"
       id="path13402"
       inkscape:connector-curvature="0" />
    <path
       d="m 1427.5096,-1483.6323 -333.3295,0 0,333.3296 333.3295,0 0,-333.3296 z"
       style="fill:#2b6fc0;fill-opacity:1;fill-rule:nonzero;stroke:none"
       id="path13404"
       inkscape:connector-curvature="0" />
    <g
       id="g13406"
       transform="matrix(11.37139,0,0,-11.37139,629.76346,-1231.9287)">
      <path
         d="m 0,0 0,8.65 c 0,1.276 -0.245,2.208 -0.737,2.795 -0.492,0.587 -1.293,0.88 -2.407,0.88 -0.516,0 -1.065,-0.144 -1.651,-0.433 -0.584,-0.289 -1.041,-0.648 -1.368,-1.076 l 0,-10.816 -3.501,0 0,15.027 2.524,0 0.645,-1.401 c 0.953,1.102 2.361,1.654 4.222,1.654 1.784,0 3.193,-0.534 4.227,-1.603 1.033,-1.07 1.55,-2.561 1.55,-4.475 L 3.504,0 0,0 Z"
         style="fill:#ffffff;fill-opacity:1;fill-rule:nonzero;stroke:none"
         id="path13408"
         inkscape:connector-curvature="0" />
    </g>
    <g
       id="g13410"
       transform="matrix(11.37139,0,0,-11.37139,924.36092,-1228.5639)">
      <path
         d="m 0,0 c 2.291,0 4.098,0.664 5.422,1.991 1.325,1.328 1.985,3.22 1.985,5.678 0,5.271 -2.394,7.907 -7.183,7.907 -1.281,0 -2.361,-0.421 -3.242,-1.263 l 0,1.01 -3.502,0 0,-20.894 3.502,0 0,6.231 C -2.111,0.22 -1.105,0 0,0 m -0.782,12.579 c 1.614,0 2.77,-0.362 3.47,-1.084 C 3.387,10.772 3.735,9.525 3.735,7.754 3.735,6.093 3.384,4.879 2.679,4.109 1.976,3.341 0.818,2.956 -0.795,2.956 c -0.848,0 -1.589,0.256 -2.223,0.769 l 0,7.875 c 0.653,0.652 1.398,0.979 2.236,0.979"
         style="fill:#ffffff;fill-opacity:1;fill-rule:nonzero;stroke:none"
         id="path13412"
         inkscape:connector-curvature="0" />
    </g>
    <g
       id="g13414"
       transform="matrix(11.37139,0,0,-11.37139,1304.9318,-1365.3699)">
      <path
         d="m 0,0 c -0.624,0.393 -1.305,0.591 -2.049,0.591 -0.81,0 -1.529,-0.369 -2.155,-1.104 -0.63,-0.737 -0.943,-1.635 -0.943,-2.697 l 0,-8.525 -3.504,0 0,15.027 3.504,0 0,-1.435 c 0.976,1.125 2.274,1.688 3.893,1.688 1.191,0 2.102,-0.182 2.734,-0.546 L 0,0 Z"
         style="fill:#ffffff;fill-opacity:1;fill-rule:nonzero;stroke:none"
         id="path13416"
         inkscape:connector-curvature="0" />
    </g>
  </g>
</svg>
