<?xml version="1.0" encoding="UTF-8" standalone="no"?>
<!-- Created with Inkscape (http://www.inkscape.org/) -->

<svg
   xmlns:dc="http://purl.org/dc/elements/1.1/"
   xmlns:cc="http://creativecommons.org/ns#"
   xmlns:rdf="http://www.w3.org/1999/02/22-rdf-syntax-ns#"
   xmlns:svg="http://www.w3.org/2000/svg"
   xmlns="http://www.w3.org/2000/svg"
   xmlns:sodipodi="http://sodipodi.sourceforge.net/DTD/sodipodi-0.dtd"
   xmlns:inkscape="http://www.inkscape.org/namespaces/inkscape"
   width="1000"
   height="308.52509"
   id="svg3016"
   version="1.1"
   inkscape:version="0.48.5 r10040"
   sodipodi:docname="New document 1">
  <defs
     id="defs3018" />
  <sodipodi:namedview
     id="base"
     pagecolor="#ffffff"
     bordercolor="#666666"
     borderopacity="1.0"
     inkscape:pageopacity="0.0"
     inkscape:pageshadow="2"
     inkscape:zoom="0.40506722"
     inkscape:cx="738.50336"
     inkscape:cy="-35.831486"
     inkscape:document-units="px"
     inkscape:current-layer="layer1"
     showgrid="true"
     fit-margin-top="0"
     fit-margin-left="0"
     fit-margin-right="0"
     fit-margin-bottom="0"
     inkscape:window-width="1011"
     inkscape:window-height="1035"
     inkscape:window-x="902"
     inkscape:window-y="-20"
     inkscape:window-maximized="0">
    <inkscape:grid
       type="xygrid"
       id="grid3035"
       empspacing="5"
       visible="true"
       enabled="true"
       snapvisiblegridlinesonly="true"
       originx="160.02728px"
       originy="600.04092px" />
  </sodipodi:namedview>
  <metadata
     id="metadata3021">
    <rdf:RDF>
      <cc:Work
         rdf:about="">
        <dc:format>image/svg+xml</dc:format>
        <dc:type
           rdf:resource="http://purl.org/dc/dcmitype/StillImage" />
        <dc:title></dc:title>
      </cc:Work>
    </rdf:RDF>
  </metadata>
  <g
     inkscape:label="Layer 1"
     inkscape:groupmode="layer"
     id="layer1"
     transform="translate(160.02728,-1343.878)">
    <path
       style="fill:#2d0023;fill-opacity:1;stroke:none"
       d="m -160.02728,1619.2742 32.71574,-61.1864 c 0,0 30.192158,29.9247 66.58717,29.9247 28.190988,0 36.818232,-15.9258 36.818232,-27.8477 0,-51.1823 -124.057092,-18.5088 -124.057092,-120.2359 0,-53.1662 34.77937,-96.0509 101.631803,-96.0509 48.1348034,0 90.313827,23.9854 90.313827,23.9854 l -30.497096,59.1412 c 0,0 -21.0805912,-19.7819 -48.651801,-19.7819 -18.574148,0 -33.306332,9.1551 -33.306332,24.672 0,44.0881 124.472216,16.9904 124.472216,121.2973 0,60.0029 -41.771067,99.2111 -113.11503,99.2111 -61.689937,0 -102.911637,-33.1289 -102.911637,-33.1289 z"
       id="path3037"
       inkscape:connector-curvature="0"
       sodipodi:nodetypes="ccccccccccccc" />
    <path
       style="fill:#2d0023;fill-opacity:1;stroke:none"
       d="m 89.988458,1643.9103 0,-291.5324 75.383032,0 0,227.6876 103.07476,0 0,63.8448 z"
       id="path3039"
       inkscape:connector-curvature="0" />
    <path
       style="fill:#2d0023;fill-opacity:1;stroke:none"
       d="m 304.59934,1580.0655 0,-57.6911 39.48303,0 -39.48303,-113.0746 0,-56.9219 52.03235,0 111.04115,291.5324 -80.76754,0 -22.30722,-63.8448 z"
       id="path3041"
       inkscape:connector-curvature="0" />
    <path
       style="fill:#2d0023;fill-opacity:1;stroke:none"
       d="m 499.21064,1643.9103 0,-227.6876 -62.30638,0 0,-63.8448 200.76501,0 0,63.8448 -62.30638,0 0,227.6876 z"
       id="path3043"
       inkscape:connector-curvature="0" />
    <path
       style="fill:#2d0023;fill-opacity:1;stroke:none"
       d="m 673.81921,1643.8638 0,-291.4859 166.15351,0 0,63.8448 -90.76733,0 0,49.2298 90.76733,0 0,63.8448 -90.76733,0 0,50.7682 90.76733,0 0,63.8448 z"
       id="path3045"
       inkscape:connector-curvature="0" />
  </g>
</svg>
