<?xml version="1.0" encoding="UTF-8" standalone="no"?>
<!-- Created with Inkscape (http://www.inkscape.org/) -->

<svg
   xmlns:dc="http://purl.org/dc/elements/1.1/"
   xmlns:cc="http://creativecommons.org/ns#"
   xmlns:rdf="http://www.w3.org/1999/02/22-rdf-syntax-ns#"
   xmlns:svg="http://www.w3.org/2000/svg"
   xmlns="http://www.w3.org/2000/svg"
   xmlns:sodipodi="http://sodipodi.sourceforge.net/DTD/sodipodi-0.dtd"
   xmlns:inkscape="http://www.inkscape.org/namespaces/inkscape"
   version="1.1"
   id="svg815"
   width="1000"
   height="750.19135"
   viewBox="0 0 999.99999 750.19135"
   sodipodi:docname="Today 2018.svg"
   inkscape:version="0.92.4 (5da689c313, 2019-01-14)">
  <metadata
     id="metadata821">
    <rdf:RDF>
      <cc:Work
         rdf:about="">
        <dc:format>image/svg+xml</dc:format>
        <dc:type
           rdf:resource="http://purl.org/dc/dcmitype/StillImage" />
        <dc:title></dc:title>
      </cc:Work>
    </rdf:RDF>
  </metadata>
  <defs
     id="defs819" />
  <sodipodi:namedview
     pagecolor="#ffffff"
     bordercolor="#666666"
     borderopacity="1"
     objecttolerance="10"
     gridtolerance="10"
     guidetolerance="10"
     inkscape:pageopacity="0"
     inkscape:pageshadow="2"
     inkscape:window-width="1920"
     inkscape:window-height="1017"
     id="namedview817"
     showgrid="false"
     inkscape:object-paths="true"
     fit-margin-top="0"
     fit-margin-left="0"
     fit-margin-right="0"
     fit-margin-bottom="0"
     inkscape:zoom="0.322"
     inkscape:cx="374.49104"
     inkscape:cy="675.81606"
     inkscape:window-x="-8"
     inkscape:window-y="-8"
     inkscape:window-maximized="1"
     inkscape:current-layer="svg815" />
  <g
     id="g944"
     transform="matrix(0.75179851,0,0,0.75179851,-7.8957714,-6.9878945e-7)">
    <g
       transform="matrix(4.4960548,0,0,4.4960548,-4.8602069,-23.23547)"
       id="g896">
      <path
         style="opacity:1;fill:#ff503c;fill-opacity:1;stroke:none;stroke-width:3.7403636;stroke-miterlimit:4;stroke-dasharray:none;stroke-opacity:1"
         d="M 151.34961,55.445312 A 98.55431,100.37334 0 0 0 52.845703,154.39258 h 37.806641 a 60.755474,61.876844 0 0 1 60.697266,-60.724611 60.755474,61.876844 0 0 1 60.71484,60.724611 h 37.76953 A 98.55431,100.37334 0 0 0 151.34961,55.445312 Z"
         id="path828"
         inkscape:connector-curvature="0" />
      <path
         style="opacity:1;fill:#ff503c;fill-opacity:1;stroke:none;stroke-width:5.61395884;stroke-miterlimit:4;stroke-dasharray:none;stroke-opacity:1"
         d="M 151.34961,5.1679688 A 147.9214,150.65161 0 0 0 3.4785156,154.39258 H 41.996094 A 109.42388,111.44353 0 0 1 151.34961,44.375 a 109.42388,111.44353 0 0 1 109.375,110.01758 h 38.47656 A 147.9214,150.65161 0 0 0 151.34961,5.1679688 Z"
         id="path834"
         inkscape:connector-curvature="0" />
      <path
         style="opacity:1;fill:#ff503c;fill-opacity:1;stroke:none;stroke-width:1.87867939;stroke-miterlimit:4;stroke-dasharray:none;stroke-opacity:1"
         d="m 151.34961,105.13086 a 49.501057,50.414703 0 0 0 -49.44336,49.26172 h 98.9043 a 49.501057,50.414703 0 0 0 -49.46094,-49.26172 z"
         id="path825"
         inkscape:connector-curvature="0" />
    </g>
    <g
       transform="matrix(1.7572548,0,0,1.7572548,-635.52201,724.65034)"
       id="g891">
      <path
         style="opacity:1;fill:#000000;fill-opacity:1;stroke:none;stroke-width:0.54741472;stroke-miterlimit:4;stroke-dasharray:none;stroke-opacity:1"
         d="M 367.63281,3.4355469 V 38.355469 h 40.95508 V 152.48633 h 39.98438 V 38.355469 h 40.95507 V 3.4355469 Z"
         id="rect838"
         inkscape:connector-curvature="0" />
      <path
         style="opacity:1;fill:#000000;fill-opacity:1;stroke:none;stroke-width:0.67761689;stroke-miterlimit:4;stroke-dasharray:none;stroke-opacity:1"
         d="M 884.31055,3.4277344 828.23828,151.9375 h 44.10156 l 6.99024,-20.5 h 58.16015 l 6.99024,20.5 h 44.10156 L 932.50977,3.4277344 c -16.06641,0 -32.13281,0 -48.19922,0 z m 24.09961,42.7246096 17.45898,51.203125 h -34.91797 z"
         id="path853"
         inkscape:connector-curvature="0"
         sodipodi:nodetypes="ccccccccccccc" />
      <path
         style="opacity:1;fill:#000000;fill-opacity:1;stroke:none;stroke-width:0.50276953;stroke-miterlimit:4;stroke-dasharray:none;stroke-opacity:1"
         d="m 972.322,3.4296875 57.0745,89.2880815 V 151.9375 h 38.3847 V 92.717769 L 1124.5769,3.43 h -43.7937 L 1048.6445,57.562111 1016.5039,3.43 Z"
         id="path856"
         inkscape:connector-curvature="0"
         sodipodi:nodetypes="cccccccccc" />
      <path
         style="opacity:1;fill:#000000;fill-opacity:1;stroke:none;stroke-width:3.70076799;stroke-miterlimit:4;stroke-dasharray:none;stroke-opacity:1"
         d="M 682.06445,3.7832031 V 152.10156 h 66.03516 c 97.3227,1.48837 109.80957,-146.7022261 0,-148.3183569 z m 39.79102,34.3691409 h 28.72656 c 48.91255,0 42.99906,79.968746 0,79.968746 h -28.72656 z"
         id="path877"
         inkscape:connector-curvature="0" />
      <path
         style="opacity:1;fill:#000000;fill-opacity:1;stroke:none;stroke-width:5.93204069;stroke-miterlimit:4;stroke-dasharray:none;stroke-opacity:1"
         d="m 578.95117,1.4082031 c -51.27051,6.5e-6 -79.48437,34.2510689 -79.48437,76.5019529 0,42.250874 31.31602,77.566404 80.25976,77.566404 48.55415,0 78.70899,-35.31551 78.70899,-77.566404 0,-42.250892 -30.15413,-76.5019607 -79.48438,-76.5019529 z M 579.5,36.269531 c 24.67446,-4e-6 39.75781,18.750382 39.75781,41.88086 0,23.130479 -15.08288,42.464839 -39.36914,42.464839 -24.48113,0 -40.14453,-19.33437 -40.14453,-42.464839 0,-23.130474 14.11091,-41.880856 39.75586,-41.88086 z"
         id="path883"
         inkscape:connector-curvature="0" />
    </g>
  </g>
</svg>
