<svg width="375" height="79" viewBox="0 0 292 75" fill="none" xmlns="http://www.w3.org/2000/svg">
<path fill-rule="evenodd" clip-rule="evenodd" d="M159.71 44.6748V43.0485H182.239V43.5268V44.2443V44.7226H176.882V74.0435H175.877L175.781 73.6608C175.16 70.7431 172.146 69.7386 170.616 69.7386H170.376H170.042C167.507 69.8308 165.239 70.8997 162.895 72.0043L162.628 72.1302C162.389 72.2259 162.161 72.3215 161.934 72.4172C161.707 72.5128 161.48 72.6085 161.241 72.7042C158.753 73.9 156.075 74.9523 152.822 74.9523C135.411 74.9523 122.688 59.9331 122.688 38.7437C122.688 12.7711 139.716 0.191327 152.105 0.191327C154.831 0.191327 156.601 0.717475 158.992 1.48278L159.997 1.76977C160.225 1.84594 160.464 1.92695 160.711 2.01127L160.714 2.01225L160.715 2.01229C161.244 2.19246 161.818 2.38769 162.436 2.58291L163.393 2.82207C164.063 2.96556 164.924 3.10906 165.928 3.15689C167.985 3.20472 170.376 2.67857 171.381 0.28699L171.524 0H172.337H172.577V26.3074H172.337H171.477L171.381 25.9248C166.98 8.41838 161.575 1.91327 152.153 1.86544H152.057C144.308 1.86544 141.725 6.83993 140.338 9.51851C136.655 16.6454 135.89 32.9082 135.89 37.8827C135.89 51.8017 137.133 57.7807 139.477 63.9988C141.869 70.3604 146.03 73.4217 152.296 73.326C158.084 73.2303 165.498 70.7431 165.498 59.5983V44.6748H159.71ZM290.433 47.7361V47.3056H291.82V73.613H240.114V71.8911H246.428V3.77873H239.397H233.466V55.15C233.609 64.1423 227.63 75.0001 214.572 75.0001C195.105 75.0001 188.456 64.8598 188.456 51.7539V3.77873H181.76V2.82209V2.10462H206.871V2.82209V3.77873H200.414V57.7329C200.414 58.3069 200.844 72.5607 215.003 73.0869C218.877 73.2304 223.134 71.6997 226.147 68.8298C228.635 66.4861 231.505 61.9899 231.648 54.6717V3.77873H226.1V2.82209V2.10462H239.397H240.832H241.31H288.903V26.2118H287.755L287.659 25.8291C283.233 3.42461 272.987 3.63532 262.488 3.85123C262.093 3.85934 261.699 3.86746 261.304 3.87439C260.538 3.92222 259.295 3.92222 258.529 3.92222V36.2565H259.056H259.114C264.891 36.2566 271.927 36.2568 273.453 22.2418L273.501 21.8113H274.649V52.6627H273.501L273.453 52.2322C272.339 37.8446 265.776 37.9128 259.969 37.9733L259.858 37.9744C259.718 37.9759 259.578 37.9773 259.438 37.9784H258.482V71.9389H259.056C259.264 71.9389 259.511 71.9417 259.792 71.945C263.836 71.9914 275.047 72.1201 282.828 65.099C287.563 60.8419 290.098 55.0065 290.433 47.7361ZM85.7632 0.382691C71.0788 0.382691 54.9596 15.067 54.9596 37.5001C54.9596 59.9332 71.605 74.8088 85.7632 74.8088C99.9214 74.8088 116.567 59.9332 116.567 37.5001C116.519 15.067 100.448 0.382691 85.7632 0.382691ZM102.887 34.7259V35.2042V35.539V35.826V36.2565V36.4V36.8305V36.9261V37.4044V37.7871C102.887 41.9484 102.504 57.9721 98.2951 65.96C95.9035 70.5996 91.2638 73.0391 85.6675 73.0391C80.0712 73.0391 75.3837 70.5996 73.0399 65.96C68.8308 57.9721 68.4959 41.9484 68.4959 37.7871V37.4044V36.9261V36.8305V36.4V36.2565V35.826V35.539V35.2042V34.7259V34.5345C68.6394 28.1251 69.4526 16.1193 73.0399 9.08806C75.9098 3.25259 81.7453 2.00897 85.6675 2.00897C89.6375 2.00897 95.4252 3.25259 98.2951 9.08806C101.882 16.1193 102.648 28.1251 102.839 34.5345C102.887 34.5824 102.887 34.678 102.887 34.7259ZM47.4969 2.10462H60.6506H61.1289V3.7309H55.2934H54.6716L33.6735 73.9957H33.2909L6.88776 3.7309H6.21812H0V2.77426V2.10462H23.7724V2.77426V3.7309H18.75H18.4152L37.2609 55.9631L52.854 3.7309H47.0186V2.10462H47.4969Z" fill="black"/>
</svg>
