<?xml version="1.0" encoding="utf-8"?>
<!-- Generator: Adobe Illustrator 16.0.0, SVG Export Plug-In . SVG Version: 6.00 Build 0)  -->
<!DOCTYPE svg PUBLIC "-//W3C//DTD SVG 1.1//EN" "http://www.w3.org/Graphics/SVG/1.1/DTD/svg11.dtd">
<svg version="1.1" id="Layer_1" xmlns="http://www.w3.org/2000/svg" xmlns:xlink="http://www.w3.org/1999/xlink" x="0px" y="0px"
	 width="1000px" height="745.434px" viewBox="0 0 1000 745.434" enable-background="new 0 0 1000 745.434" xml:space="preserve">
<g>
	<path d="M175.113,632.534c-3.689-17.913-18.343-22.666-34.751-24.187c-52.998-4.925-62.396,34.776-62.396,51.542
		c0,28.675,8.359,52.396,60.389,52.396c9.593,0,36.084-9.901,36.084-25.982h74.829c-3.019,47.706-83.038,59.131-117.939,59.131
		c-72.312,0-134.218-13.489-131.225-84.902c2.137-50.965,50.184-86.733,145.757-84.496c53.277,1.24,104.45,17.888,104.672,56.499
		H175.113"/>
	<path d="M924.577,632.534c-3.686-17.913-18.348-22.666-34.751-24.187c-52.998-4.925-62.39,34.776-62.39,51.542
		c0,28.675,8.353,52.396,60.389,52.396c9.586,0,36.07-9.901,36.07-25.982h74.836c-3.004,47.706-83.038,59.131-117.939,59.131
		c-72.312,0-134.221-13.489-131.225-84.902c2.137-50.965,50.194-86.733,145.75-84.496c53.284,1.24,104.461,17.888,104.684,56.499
		H924.577"/>
	<polyline points="263.89,579.44 361.027,579.44 443.907,695.913 444.578,695.913 444.578,579.44 506.834,579.44 506.834,741.168 
		413.773,741.168 326.829,624.694 326.147,624.694 326.147,741.168 263.89,741.168 263.89,579.44 	"/>
	<path d="M526.049,579.44h117.989c56.704,0,90.057,15.881,90.057,39.87c0,14.163-13.959,31.66-45.089,36.805v0.451
		c37.482,2.241,51.319,25.99,51.319,40.229c0,28.51-32.521,44.373-95.943,44.373H526.049V579.44L526.049,579.44z M594.353,642.281
		h19.559c30.127,0,46.107-2.354,46.107-14.901c0-13.433-13.299-17.924-40.414-17.924h-25.252V642.281L594.353,642.281z
		 M594.353,707.281h19.559c36.307,0,49.628-3.814,49.628-16.354c0-13.442-16.819-17.931-43.935-17.931h-25.252V707.281"/>
	<path fill="#FFFFFF" d="M915.385,553.01c-15.909,7.048-33.525,10.191-52.303,10.191l-751.965-0.595
		c-42.522-3.323-84.278-38.4-96.158-80.343C2.327,440.318,14.58,397,42.354,366.433c26.814-27.631,61.292-39.189,99.6-34.884
		c-36.009-24.498-51.141-65.071-45.964-108.579c4.786-37.816,32.17-74.667,67.229-89.752c40.035-18.035,90.591-8.234,122.004,22.143
		c-6.51-22.143-9.958-53.894-0.953-76.628c10.718-35.866,45.577-67.81,81.012-75.259c47.312-10.188,92.323,7.65,119.513,48.215
		c5.176,7.643,8.245,16.268,12.26,24.305c13.607-38.809,52.868-70.954,92.717-75.069c41.175-5.291,80.063,12.35,105.916,47.036
		c20.11,28.814,27.001,71.731,13.98,106.421h1.534c29.869-26.846,75.08-36.647,113.58-21.752
		c36.773,12.148,67.989,51.345,72.973,89.953c5.549,42.723-9.006,80.156-41.369,107.794c49.033-2.939,95.57,23.122,115.682,68.781
		c17.63,39.791,12.468,93.093-17.423,125.432C942.586,536.746,929.746,546.93,915.385,553.01"/>
	<path fill="#0089CF" d="M835.703,331.549L557.588,517.535l93.662-222.633l44.438-103.679c18.003-33.507,51.894-54.868,88.874-55.46
		c35.425,0,66.842,17.053,86.759,47.624c20.505,30.571,21.652,80.55,1.147,111.515C863.284,309.399,849.683,322.333,835.703,331.549
		"/>
	<path fill="#645FAA" d="M697.222,155.952L559.696,481.081l-6.13-35.468l-41.368-266.539c-1.729-16.268,4.968-29.983,17.988-38.999
		l19.737-11.758c1.154-4.119-4.596-5.488-7.284-6.861l-38.687-0.391c-2.481-38.418,14.367-73.291,46.925-94.262
		c25.287-16.472,63.787-20.777,91.942-7.453c36.586,14.895,62.053,53.897,62.626,93.678
		C705.259,127.729,702.772,142.821,697.222,155.952"/>
	<path fill="#CE1141" d="M433.096,482.264L297.677,156.343c-14.561-34.887-8.435-80.747,16.469-108.97
		C340.766,17.78,378.306,5.237,417,15.239c32.75,8.03,63.393,39.39,71.445,72.9c3.828,12.547,3.248,27.632,2.488,41.351
		L433.096,482.264"/>
	<path fill="#F37021" d="M143.682,319.791c-27.775-24.104-40.222-56.249-36.207-93.487c4.022-37.626,33.718-74.471,69.15-85.834
		c36.393-11.368,76.033-2.352,102.471,24.889c11.109,10.586,17.999,23.126,23.742,36.06l130.831,316.708L143.682,319.791"/>
	<path fill="#FDB913" d="M113.957,551.156c-36.192-4.104-64.082-23.609-81.095-56.79c-17.229-33.496-12.754-81.03,10.41-110.733
		c25.237-30.242,61.759-45.456,98.553-37.988c14.999,2.42,27.574,8.872,39.397,16.304l281.545,189.287L113.957,551.156"/>
	<path fill="#0DB14B" d="M878.311,551.156c36.206-4.104,64.082-23.609,81.103-56.79c17.229-33.496,12.747-81.03-10.41-110.733
		c-25.244-30.242-61.767-45.456-98.567-37.988c-14.992,2.42-27.56,8.872-39.39,16.304L529.512,551.235L878.311,551.156"/>
</g>
</svg>
