<?xml version="1.0" encoding="UTF-8" standalone="no"?>
<!-- Created with Inkscape (http://www.inkscape.org/) -->

<svg
   xmlns:dc="http://purl.org/dc/elements/1.1/"
   xmlns:cc="http://creativecommons.org/ns#"
   xmlns:rdf="http://www.w3.org/1999/02/22-rdf-syntax-ns#"
   xmlns:svg="http://www.w3.org/2000/svg"
   xmlns="http://www.w3.org/2000/svg"
   xmlns:sodipodi="http://sodipodi.sourceforge.net/DTD/sodipodi-0.dtd"
   xmlns:inkscape="http://www.inkscape.org/namespaces/inkscape"
   width="65.652908mm"
   height="10.20445mm"
   viewBox="0 0 65.652908 10.20445"
   version="1.1"
   id="svg8"
   inkscape:version="0.92.3 (2405546, 2018-03-11)"
   sodipodi:docname="Fast Company 2018.svg">
  <defs
     id="defs2">
    <clipPath
       clipPathUnits="userSpaceOnUse"
       id="clipPath14">
      <path
         d="m 0.5,-0.5 h 612 v 792 H 0.5 Z"
         id="path12"
         inkscape:connector-curvature="0" />
    </clipPath>
    <clipPath
       clipPathUnits="userSpaceOnUse"
       id="clipPath22">
      <path
         d="M 42.60938,591.1084 H 202.42871 V 750.58643 H 42.60938 Z"
         id="path20"
         inkscape:connector-curvature="0" />
    </clipPath>
    <clipPath
       clipPathUnits="userSpaceOnUse"
       id="clipPath100">
      <path
         d="m 202.42432,591.1084 h -17.36084 l 17.36084,17.36084 V 591.1084 m 0,47.14844 -47.14844,-47.14844 h 13.98584 l 33.1626,33.16211 v 13.98633 m 0,29.78564 -76.93409,-76.93408 h 13.98389 l 62.9502,62.95019 v 13.98389 m 0,29.79004 L 95.7002,591.1084 h 13.98632 l 92.7378,92.73779 v 13.98633 m 0,29.7876 L 65.91357,591.1084 H 79.8999 l 122.52442,122.52539 v 13.98633 m 0,22.96631 h -6.82129 L 42.94727,597.93164 v -6.82324 h 7.16601 l 152.31104,152.31103 v 7.167 m -36.83789,0 L 42.94727,627.94629 v -13.98633 l 136.625,136.62647 h -13.98584 m -30.01661,0 -92.62255,-92.62354 v -13.98633 l 106.61084,106.60987 h -13.98829 m -30.0166,0 -62.60595,-62.60498 v -13.98829 l 76.59228,76.59327 h -13.98633 m -30.01611,0 -32.58984,-32.59082 v -13.98584 l 46.57568,46.57666 H 75.53711 m -32.58984,0 v -16.56006 l 16.5581,16.56006 h -16.5581"
         id="path98"
         inkscape:connector-curvature="0" />
    </clipPath>
    <style
       id="style4138">.cls-1{fill:#f1efec;}</style>
    <path
       d="M 0,0 H 248.134 V 38.567 H 0 Z"
       id="a"
       inkscape:connector-curvature="0" />
  </defs>
  <sodipodi:namedview
     id="base"
     pagecolor="#ffffff"
     bordercolor="#666666"
     borderopacity="1.0"
     inkscape:pageopacity="0.0"
     inkscape:pageshadow="2"
     inkscape:zoom="1.979899"
     inkscape:cx="132.30973"
     inkscape:cy="-3.0148476"
     inkscape:document-units="mm"
     inkscape:current-layer="layer1"
     showgrid="false"
     fit-margin-top="0"
     fit-margin-left="0"
     fit-margin-right="0"
     fit-margin-bottom="0"
     inkscape:window-width="1366"
     inkscape:window-height="705"
     inkscape:window-x="-8"
     inkscape:window-y="-8"
     inkscape:window-maximized="1" />
  <metadata
     id="metadata5">
    <rdf:RDF>
      <cc:Work
         rdf:about="">
        <dc:format>image/svg+xml</dc:format>
        <dc:type
           rdf:resource="http://purl.org/dc/dcmitype/StillImage" />
        <dc:title></dc:title>
      </cc:Work>
    </rdf:RDF>
  </metadata>
  <g
     inkscape:label="Layer 1"
     inkscape:groupmode="layer"
     id="layer1"
     transform="translate(-12.719674,-102.72069)">
    <path
       style="fill:#000000;fill-rule:evenodd;stroke-width:0.26458332"
       inkscape:connector-curvature="0"
       d="m 18.249466,104.41138 h 0.113771 v -1.45442 h -5.643563 v 0.0974 c 0.650875,0.52864 0.74004,0.68315 0.74004,1.26047 v 7.0411 c 0,0.57732 -0.08916,0.7313 -0.74004,1.26021 v 0.0979 h 2.92735 v -0.0979 c -0.658812,-0.4953 -0.772583,-0.68289 -0.772583,-1.23561 V 107.892 h 0.633941 c 0.829734,0 0.976313,0.0569 1.683015,0.95938 h 0.0979 V 106.559 h -0.0979 c -0.706967,0.9017 -0.853281,0.95938 -1.683015,0.95938 h -0.633941 v -4.20449 h 0.967581 c 0.39079,0 0.723635,0.12991 2.407708,1.09775 z m 2.226733,4.13861 h -1.958446 l 0.927894,-2.8358 c 0.04286,0.1016 0.08599,0.21431 0.132292,0.34766 z m 1.541198,0.82973 -1.698361,-4.66751 h -1.537493 v 0.09 c 0.216164,0.20108 0.355071,0.35454 0.465137,0.52387 l -1.27,3.85816 c -0.227277,0.69135 -0.373856,0.91096 -0.951706,1.44727 v 0.0984 h 1.781175 v -0.0982 c -0.487892,-0.30057 -0.650346,-0.4953 -0.650346,-0.78052 0,-0.13758 0.04075,-0.32438 0.146579,-0.64188 l 0.111655,-0.34184 h 2.176462 l 0.199231,0.55218 c 0.122502,0.35058 0.146579,0.49689 0.146579,0.62707 0,0.20267 -0.138377,0.37359 -0.511968,0.58473 v 0.0984 h 2.487612 v -0.0982 c -0.585787,-0.47969 -0.674687,-0.64135 -0.894292,-1.25201 z m 3.737769,-4.96808 h 0.1143 v -1.40626 c -0.545042,-0.0979 -1.154907,-0.17912 -1.715823,-0.17912 -1.635125,0 -2.439459,1.09008 -2.439459,2.2524 0,1.34143 0.870215,2.1463 1.983846,3.07393 1.203061,1.00806 1.910556,1.61766 1.910556,2.77997 0,0.95965 -0.633677,1.54517 -1.47902,1.54517 -0.74004,0 -1.325563,-0.29342 -2.879725,-1.51289 h -0.136525 l 0.56806,1.58618 a 7.8255812,7.8255812 0 0 0 2.09894,0.29263 c 1.861608,0 2.94296,-1.12977 2.94296,-2.69928 0,-1.44727 -0.845873,-2.18705 -2.049727,-3.16283 -1.105694,-0.89535 -1.861873,-1.61819 -1.861873,-2.65906 0,-0.67496 0.44741,-1.13824 1.138767,-1.13824 0.479689,0 0.813064,0.1868 1.804458,1.2274 z m 7.163858,0 h 0.113241 v -1.45547 h -6.650566 v 1.45521 h 0.113242 c 1.569508,-0.9914 1.887008,-1.12237 2.252662,-1.12237 h 0.252413 v 8.09096 c 0,0.55272 -0.1143,0.74031 -0.773113,1.23561 v 0.0979 h 2.959894 v -0.0979 c -0.658813,-0.4953 -0.772848,-0.68289 -0.772848,-1.23561 v -8.09043 h 0.252677 c 0.365125,0 0.682625,0.13097 2.252398,1.12237 z m 8.482012,-0.25955 h 0.114829 v -1.25254 c -0.658812,-0.0979 -1.504685,-0.17886 -2.276739,-0.17886 -3.456252,0 -5.50545,1.92749 -5.50545,5.12233 0,3.13902 1.959504,5.08212 5.374481,5.08212 0.886354,0 1.683279,-0.12991 2.31775,-0.3011 l 0.251354,-1.38985 h -0.112712 c -1.276879,1.08135 -1.846263,1.33323 -2.772834,1.33323 -2.553758,0 -3.407568,-1.92749 -3.407568,-4.78102 0,-2.90301 0.85381,-4.67545 3.268927,-4.67545 0.771789,0 1.317889,0.17859 2.747962,1.0414 z m -0.329406,3.63431 c 0,1.61026 -0.137583,2.67467 -1.300956,2.67467 -1.170781,0 -1.301221,-1.06441 -1.301221,-2.67493 0,-1.60999 0.13044,-2.6752 1.301221,-2.6752 1.171046,0 1.300956,1.06521 1.300956,2.67546 z m 1.382183,0 c 0,-1.70021 -1.008062,-2.97656 -2.682875,-2.97656 -1.674812,0 -2.683139,1.28587 -2.683139,2.97656 0,1.68275 1.008062,2.97524 2.682875,2.97524 1.675341,0 2.683139,-1.29249 2.683139,-2.97524 z m 5.980906,4.91014 2.894542,0.0169 v -0.0979 c -0.650346,-0.52864 -0.739246,-0.68263 -0.739246,-1.25995 v -7.04109 c 0,-0.57732 0.0889,-0.73184 0.739511,-1.25254 v -0.0974 l -2.048934,-0.0164 -2.275152,7.20725 -2.32701,-7.19905 h -2.07301 v 0.0976 c 0.390789,0.33973 0.630237,0.56092 0.804333,0.7882 v 6.82201 c 0,0.78846 -0.09737,1.10596 -0.829733,1.95157 v 0.0979 h 2.318279 v -0.0979 c -0.976313,-0.80433 -1.113896,-1.12977 -1.113896,-1.95157 v -6.0698 c 0.01588,0.0466 0.03175,0.0905 0.04763,0.14234 l 2.611437,8.05815 h 0.113242 l 2.617523,-8.29362 v 6.84609 c 0,0.57758 -0.08917,0.73157 -0.739511,1.25227 z m 8.379355,-6.75534 c 0,1.82906 -0.430742,2.59318 -1.829594,2.59318 h -0.805127 v -5.22049 h 0.568854 c 1.545167,0 2.065867,0.65881 2.065867,2.62731 z m 1.511829,-0.0656 c 0,-2.19551 -1.5367,-2.91888 -3.617913,-2.91888 h -2.682875 v 0.0974 c 0.649817,0.52864 0.738981,0.68316 0.738981,1.26048 v 7.04109 c 0,0.57732 -0.08916,0.73131 -0.738981,1.26021 v 0.0979 h 2.926821 v -0.0979 c -0.659077,-0.4953 -0.772583,-0.68289 -0.772583,-1.2356 v -2.48814 h 0.763587 c 1.838325,0 3.382963,-0.78105 3.382963,-3.01652 z m 3.571345,3.27687 h -2.761456 l 1.360223,-4.91781 c 0.02884,0.0839 0.05715,0.17356 0.08599,0.27463 l 1.314979,4.64344 z m 16.475075,-6.09865 v -0.0968 h -2.202921 v 0.0974 c 0.593461,0.52864 0.772055,0.78052 0.772055,1.16284 0,0.2032 -0.04868,0.36566 -0.211932,0.74004 l -1.264708,2.95778 -1.653646,-3.6658 c -0.130439,-0.2839 -0.171714,-0.43895 -0.171714,-0.58473 0,-0.26009 0.147108,-0.40693 0.545041,-0.61013 v -0.0976 h -4.878123 v 0.0974 c 1.089555,0.8054 1.236398,1.12184 1.236398,2.00872 v 5.61181 l -4.073525,-7.71816 h -2.025385 v 0.0974 c 0.42254,0.36248 0.667544,0.5887 0.878417,0.86863 v 6.76539 c 0,0.73528 -0.08176,1.05516 -0.664898,1.92776 -0.449263,-0.56304 -0.547159,-0.83344 -0.7747,-1.63407 l -2.300552,-8.025 h -1.975644 v 0.0974 c 0.310621,0.27253 0.506677,0.46144 0.653521,0.68263 l -1.913731,6.88763 c -0.27649,1.00013 -0.496623,1.30069 -1.228196,1.99152 v 0.0979 h 2.358496 v -0.0979 c -0.675217,-0.51223 -0.88609,-0.77232 -0.88609,-1.21973 0,-0.17859 0.04075,-0.43127 0.138377,-0.77179 l 0.305594,-1.10596 h 2.965185 l 0.412221,1.45521 c 0.129646,0.45562 0.178594,0.65088 0.178594,0.82947 0,0.25188 -0.104511,0.42281 -0.601398,0.8128 v 0.0979 h 4.943739 v -0.0979 c -1.090612,-0.80433 -1.236133,-1.12183 -1.236133,-1.92749 v -6.15897 c 0.0079,0.0164 0.01588,0.0286 0.02381,0.0455 l 4.301595,8.13858 h 0.895086 v -7.65069 c 0,-0.80962 0.08043,-1.13162 0.642673,-2.00369 0.366183,0.44318 0.598487,0.81571 0.90117,1.49146 l 1.756305,3.88064 v 2.94931 c 0,0.55245 -0.1143,0.74004 -0.772584,1.23534 v 0.0979 h 2.960423 v -0.0979 c -0.659341,-0.4953 -0.772319,-0.68289 -0.772319,-1.2356 v -2.99297 l 1.462617,-3.40598 c 0.309827,-0.72364 0.545042,-1.06468 1.277144,-1.92696 z"
       mask="none"
       id="path9532" />
  </g>
</svg>
