<?xml version="1.0" encoding="UTF-8" standalone="no"?>
<svg
   xmlns:dc="http://purl.org/dc/elements/1.1/"
   xmlns:cc="http://creativecommons.org/ns#"
   xmlns:rdf="http://www.w3.org/1999/02/22-rdf-syntax-ns#"
   xmlns:svg="http://www.w3.org/2000/svg"
   xmlns="http://www.w3.org/2000/svg"
   width="1926"
   height="500"
   viewBox="-53.92 -98.979 1157.9112 300.64309"
   version="1.1"
   id="svg819">
  <metadata
     id="metadata825">
    <rdf:RDF>
      <cc:Work
         rdf:about="">
        <dc:format>image/svg+xml</dc:format>
        <dc:type
           rdf:resource="http://purl.org/dc/dcmitype/StillImage" />
        <dc:title></dc:title>
      </cc:Work>
    </rdf:RDF>
  </metadata>
  <defs
     id="defs823" />
  <path
     style="fill:#33629a;fill-opacity:1;stroke-width:0.833508"
     d="m 234.21999,200.49615 c -46.55331,-7.32918 -74.89961,-39.48013 -80.59369,-91.41103 -1.33583,-12.182859 -0.50677,-32.307371 1.77624,-43.11768 9.10233,-43.10008 36.53314,-71.5694 77.56635,-80.50288 10.11901,-2.20305 37.45345,-2.22476 47.41201,-0.0376 42.03694,9.23216 67.7671,38.67519 74.51954,85.2727 1.58401,10.931108 1.31605,34.67622 -0.50563,44.80292 -8.40882,46.7448 -39.65964,78.31964 -84.02732,84.89857 -10.36861,1.53749 -26.71245,1.58046 -36.1475,0.0949 z m 32.68387,-15.01863 c 17.81431,-8.02879 26.91621,-38.77928 26.94421,-91.030324 0.0217,-39.505016 -6.70548,-69.342846 -19.3305,-85.745486 -6.16546,-8.01025 -15.86625,-12.59106 -24.51453,-11.57602 -17.58835,2.06433 -27.72557,18.629 -32.66929,53.38309 -2.11586,14.87451 -2.08443,63.56203 0.05,77.07134 4.0924,25.90454 10.20197,42.05609 19.63307,51.90276 8.32551,8.69232 19.10454,10.85434 29.88726,5.99464 z m 329.30654,15.35292 c -16.67943,-1.66493 -50.05465,-7.47147 -51.4136,-8.94481 -0.29719,-0.32221 -0.17514,-18.20246 0.27172,-39.73388 0.96509,-46.52535 0.33028,-189.6316 -0.88123,-198.6554 -2.53488,-18.88063 -8.43691,-25.83449 -23.6696,-27.88785 l -3.96186,-0.53406 v -4.05753 c 0,-4.56368 -0.29212,-4.35852 8.3408,-5.8579 2.98183,-0.51789 21.34516,-3.91073 40.80738,-7.53964 19.46227,-3.62891 36.16471,-6.5981 37.11657,-6.59819 l 1.7306,-1.8e-4 -0.28765,48.31051 c -0.21161,35.52852 -0.0382,48.31048 0.65488,48.31048 0.51841,0 1.77391,-0.5229 2.78992,-1.16202 3.73372,-2.34862 17.05947,-7.09855 23.95045,-8.53705 10.58214,-2.20906 29.09979,-2.05622 38.08833,0.31437 25.35359,6.68661 46.09919,27.66999 55.75461,56.39367 4.47721,13.31904 5.63936,21.25858 5.73797,39.199993 0.094,17.097707 -0.69125,24.870707 -3.76507,37.272277 -7.77889,31.38439 -26.26603,55.4033 -52.65277,68.40771 -9.44967,4.65717 -20.16081,8.18784 -30.65188,10.10369 -9.25208,1.68957 -36.26529,2.36311 -47.95957,1.19581 z m 36.51702,-16.81149 c 21.72192,-10.04376 36.4649,-48.4182 36.4649,-94.914393 0,-32.682847 -7.80253,-57.892087 -22.09682,-71.392477 C 637.03164,8.20711 625.55009,6.02067 609.42606,10.53864 l -5.11446,1.43307 -0.12344,17.70235 c -0.12416,17.8183 -0.23866,131.62618 0.67759,147.04408 l 0.51945,8.74059 2.50222,0.57445 c 1.37623,0.31595 6.44329,0.49365 11.26008,0.3949 7.50933,-0.15395 9.44525,-0.49739 13.57983,-2.40913 z m 201.61259,16.41174 c -15.16708,-2.39486 -27.69118,-7.14113 -39.72293,-15.05382 -22.82408,-15.01023 -37.80955,-38.57675 -43.37236,-68.20846 -2.34328,-12.48189 -2.17052,-35.887798 0.35798,-48.50004 3.21922,-16.05754 8.79594,-30.21732 16.50027,-41.89574 14.14315,-21.43867 34.32609,-35.39633 59.14739,-40.90396 9.79396,-2.17319 29.76295,-2.99098 38.58181,-1.58002 22.63281,3.6211 39.23665,14.09138 51.45735,32.44878 9.55898,14.35901 14.94613,33.23479 16.71754,58.57592 l 0.50945,7.288195 h -62.31115 -62.31102 l 0.52787,10.401613 c 1.79152,35.300552 15.56584,60.417112 39.34828,71.749392 10.35123,4.93232 17.51239,6.36667 31.69499,6.34837 17.51532,-0.0225 26.61687,-2.66469 40.19646,-11.66866 l 4.4901,-2.97718 2.43667,2.84596 c 1.34018,1.56527 2.45196,3.22236 2.47063,3.6824 0.0643,1.58951 -8.18616,10.85237 -13.45045,15.10074 -15.22686,12.28831 -29.42573,18.78027 -48.11192,21.99748 -10.97393,1.88939 -24.54806,2.02417 -35.15696,0.34903 z M 873.63599,67.29435 c 1.12018,-0.87527 -1.26279,-23.54319 -2.9292,-33.87091 -3.29394,-20.41336 -10.10155,-32.81565 -19.56709,-35.64771 -4.28968,-1.28346 -6.69865,-1.21909 -10.99233,0.29372 -13.89894,4.89711 -24.98894,27.02149 -28.74939,57.35455 -0.68544,5.52892 -1.58259,11.25944 -1.58259,11.87035 14.57565,-0.0786 24.35263,-0.0629 30.97281,0 26.43856,0.251 2.52759,1.25337 32.84779,0 z m 122.09838,133.04616 c -13.49327,-1.60545 -29.25144,-4.84394 -38.36767,-7.88501 -4.1287,-1.37728 -7.74495,-2.763 -8.03602,-3.07934 -0.29117,-0.31636 -0.79238,-14.11633 -1.11382,-30.66663 l -0.58445,-30.09144 3.97313,-1.35192 c 2.18521,-0.74355 4.23403,-1.35192 4.55299,-1.35192 0.31895,0 1.80062,3.09228 3.29253,6.87172 8.9804,22.74931 20.63839,38.01048 34.15183,44.70756 7.29961,3.61759 12.16801,4.64802 21.73231,4.59976 7.065,-0.0356 9.6843,-0.40925 13.551,-1.9329 6.6759,-2.63064 13.2569,-8.85866 16.6643,-15.77054 2.541,-5.15458 2.7293,-6.1197 2.7107,-13.88645 -0.017,-7.36417 -0.2769,-8.83742 -2.2028,-12.51327 -5.3677,-10.24447 -16.9925,-17.53865 -44.0685,-27.65146 -35.5727,-13.286293 -50.0759,-30.601387 -50.03021,-59.7302 0.0193,-11.57395 1.5338,-18.81924 5.7434,-27.45501 10.18215,-20.88847 31.21566,-34.84551 58.54931,-38.85121 10.2028,-1.4952 34.1905,-0.65805 46.9755,1.63939 9.0427,1.62495 27.6701,6.93017 28.9511,8.24543 0.2891,0.29681 0.7837,12.5607 1.0991,27.25312 l 0.5735,26.71348 -3.4796,1.04108 c -1.9139,0.57258 -3.9466,1.22004 -4.5175,1.43875 -0.6709,0.25721 -1.8647,-1.89688 -3.3795,-6.0982 -2.9475,-8.17594 -8.8565,-20.08282 -12.9688,-26.13258 -9.1307,-13.43325 -22.754,-20.53275 -37.9115,-19.75671 -14.4846,0.74161 -24.0791,9.9857 -26.465,25.4989 -1.1523,7.49231 0.1884,13.74097 4.2187,19.66047 5.904,8.67168 16.9269,15.6388 40.4079,25.54024 22.8824,9.648952 31.1721,14.517459 40.229,23.626193 10.6533,10.714337 14.0717,19.990447 14.1352,38.356517 0.034,9.68269 -0.2874,12.86232 -1.8911,18.74107 -3.683,13.50183 -12.7299,26.72721 -23.9403,34.99743 -18.87,13.92105 -48.2454,19.35585 -82.55473,15.27368 z M -53.954356,190.93247 c 0,-2.72166 0.3047,-5.13652 0.67712,-5.36638 0.37242,-0.22984 4.59494,-1.19379 9.3834,-2.14208 4.78845,-0.9483 9.47759,-1.89561 10.42031,-2.10516 2.93336,-0.65202 8.56203,-4.89665 11.14563,-8.40499 3.44407,-4.67679 6.64314,-14.77993 7.99028,-25.23447 2.15009,-16.6858 3.13698,-59.791989 2.66271,-116.30346 -0.46028,-54.84651 -1.12291,-70.09845 -3.60059,-82.87719 -4.03626,-20.81725 -11.46781,-27.81817 -31.58919,-29.75868 l -6.67263,-0.64351 v -5.83056 -5.83055 l 116.87719,-0.21113 116.877186,-0.21112 0.50476,21.86747 c 0.27764,12.02711 0.60519,30.29867 0.728,40.60345 l 0.2232,18.73597 -5.83855,1.87761 c -3.21119,1.03268 -6.14861,1.77511 -6.52757,1.64985 -0.37895,-0.12532 -2.10427,-3.96646 -3.8341,-8.536 -7.3721,-19.47455 -13.53794,-29.93461 -23.3147,-39.55225 -7.28733,-7.1687 -14.67651,-11.42854 -24.74677,-14.26641 -6.26608,-1.76583 -8.21206,-1.87251 -34.993716,-1.91838 l -28.35871,-0.0485 -0.51188,10.41171 c -0.85633,17.41797 -2.72221,106.57915 -2.24045,107.06025 0.91309,0.91183 36.96456,-1.32019 41.11999,-2.54582 C 103.42029,38.10956 112.15316,25.86133 115.57407,8.88672 l 1.17505,-5.83056 5.97992,-0.24472 5.97996,-0.24473 v 49.17978 49.17976 h -5.82266 c -5.66989,0 -5.83631,-0.0601 -6.34269,-2.290588 C 113.54544,85.429188 109.29545,75.36934 104.30414,69.66459 97.716924,62.13576 92.138884,60.7022 65.400214,59.66626 l -14.51518,-0.56237 0.56486,22.368823 c 1.60877,63.708817 3.51389,79.469687 10.97903,90.828537 4.25295,6.47121 8.37774,8.50204 22.43342,11.04501 l 11.7346,2.12304 0.26052,5.20585 0.26053,5.20585 h -75.53618 -75.53617 z m 412.035126,-0.38746 v -5.33593 l 4.37893,-0.55039 c 9.03018,-1.13501 12.77682,-2.69016 16.40922,-6.81117 7.08441,-8.03728 7.84517,-15.95388 7.91211,-82.335466 0.0522,-51.850874 -0.38367,-61.295834 -3.2783,-71.019584 -2.4187,-8.12506 -8.38038,-12.75659 -17.91524,-13.91811 -7.55079,-0.91981 -7.50672,-0.88757 -7.50672,-5.49207 0,-2.2597 0.28153,-4.10912 0.62558,-4.10983 0.34405,-7e-4 20.08638,-3.93633 43.87186,-8.74584 23.78547,-4.8095 43.44966,-8.74455 43.69817,-8.74455 0.2485,0 0.20025,10.58871 -0.10749,23.53046 l -0.5592,23.53047 3.96633,-7.35635 c 2.1815,-4.04597 6.42384,-10.58908 9.42742,-14.54024 15.16246,-19.94584 37.76273,-29.55188 58.20408,-24.73911 5.37926,1.26651 11.85939,4.12269 11.85939,5.22716 0,0.34148 -4.50897,12.60928 -10.01992,27.26174 -5.51097,14.65247 -10.2042,27.14409 -10.42946,27.75913 -0.31206,0.85217 -1.30445,0.59456 -4.17001,-1.08246 -13.56141,-7.93665 -31.3301,-10.2688 -45.11213,-5.92103 -3.63037,1.14528 -8.1569,3.2252 -10.05898,4.62208 -3.14878,2.31247 -3.4922,2.92987 -3.83748,6.89906 -0.77371,8.89494 -0.6096,78.1616 0.21861,92.23412 1.55838,26.48037 3.15477,33.19978 9.1789,38.63477 3.57982,3.22972 7.3294,4.24464 18.97275,5.13546 l 7.71524,0.5903 v 5.30664 5.30667 H 419.80259 358.0807 Z"
     id="path827" />
</svg>
