<svg viewBox="0 0 308 72" fill="#231F20" xmlns="http://www.w3.org/2000/svg"><title>Glamour</title><path d="M101.704 44.376L96.049 18.36l-5.43 26.016h11.085zM73.426 70.393L89.714 1.166h14.479l14.705 65.213V1.166h20.587l7.691 45.699 9.276-45.699h19.003v69.227h-13.8V20.848l-11.311 49.545h-8.371l-11.311-49.77v49.77h-24.659l-2.715-15.158H88.809l-3.393 15.158h-11.99zm-28.505 0V1.166h13.8v56.558h13.347v12.669H44.921zm-2.941-45.02H30.668c1.09-13.299-6.854-13.992-7.23-14.025l-.01-.001c-10.18.452-9.5 24.206-9.5 24.206.452 26.47 8.37 23.528 8.37 23.528 10.18.453 8.144-14.479 8.144-14.479h-8.144V33.97h20.36v36.197h-5.882l-1.81-7.692c-4.072 9.727-15.383 8.823-15.383 8.823C-2.814 70.618.127 32.16.127 32.16 1.711-.643 22.75.035 22.75.035c21.266-1.13 19.23 25.338 19.23 25.338zm238.672-13.348v19.909c13.348 2.036 12.216-9.05 12.216-9.05.905-13.8-12.216-10.859-12.216-10.859zm26.243 8.37s2.714 11.991-9.276 20.362l9.954 29.41h-14.252l-7.692-26.47h-4.751v26.47h-13.574V.94h20.135s19.003-1.583 19.456 19.456zm-56.332 31.9s1.358 7.239-6.56 7.691h-1.358c-7.918-.452-6.56-7.692-6.56-7.692V1.166h-13.348v46.377s-3.167 25.338 19.456 24.433h2.262c22.623.905 19.456-24.433 19.456-24.433V1.166h-13.348v51.128zm-51.806 7.465c4.977-.226 5.882-7.692 5.882-7.692.905-2.262.452-27.826.226-27.6-.452-9.954-4.751-11.538-6.334-11.764-1.584.226-5.882 1.584-6.335 11.764 0 0-.226 25.338.453 27.6 0 0 1.131 7.466 5.882 7.692h.226zm0-59.499c3.393-.226 21.492.68 21.492 35.292 0 0 1.81 38.233-21.492 36.197-23.076 2.262-21.492-36.197-21.492-36.197C177.265.94 195.363.035 198.757.261z"/></svg>
